# xmcd
#
# Track frame offsets:
#	150
#	18088
#	35045
#	50802
#	67555
#	83535
#	96694
#	113887
#	129135
#	146558
#	161391
#	177140
#	189877
#	206515
#	219779
#
# Disc length: 3146 seconds
#
# Revision: 1
# Processed by: cddbd v1.5.2PL0 Copyright (c) Steve Scherf et al.
# Submitted via: audiograbber 1.83.01
#
DISCID=bd0c480f
DTITLE=Various Artist - CDX 483
DYEAR=2009
DGENRE=Country
TTITLE0=Bomshell - 19 and Crazy
TTITLE1=Mica Roberts - Days you live for
TTITLE2=Kelly Pickler - Didn't you know how much I loved you
TTITLE3=Blackberry Smoke - Good one coming on
TTITLE4=Darius Rucker - History in the making
TTITLE5=Randy Houser - My kind of Country
TTITLE6=Billy Currington - That's how country boys roll
TTITLE7=The Parks - The party's right here
TTITLE8=Billy Joe Royal - Hard rock to roll
TTITLE9=Jake McVey - Carry on
TTITLE10=Williams Riley - Country living
TTITLE11=Jordan Carter - John Deere letter
TTITLE12=Megan Morrison - Love can take you there
TTITLE13=Clay Dustin - The devil sccared the hell out of me
TTITLE14=Nash - I'll still want you
EXTD=
EXTT0=
EXTT1=
EXTT2=
EXTT3=
EXTT4=
EXTT5=
EXTT6=
EXTT7=
EXTT8=
EXTT9=
EXTT10=
EXTT11=
EXTT12=
EXTT13=
EXTT14=
PLAYORDER=
